<mxfile host="65bd71144e">
    <diagram id="Oc2sRws5K7UV5d6kbbzk" name="Page-1">
        <mxGraphModel dx="1130" dy="536" grid="1" gridSize="10" guides="1" tooltips="1" connect="1" arrows="1" fold="1" page="1" pageScale="1" pageWidth="850" pageHeight="1100" math="0" shadow="0">
            <root>
                <mxCell id="0"/>
                <mxCell id="1" parent="0"/>
                <mxCell id="4" value="" style="edgeStyle=none;html=1;" edge="1" parent="1" source="5" target="7">
                    <mxGeometry relative="1" as="geometry"/>
                </mxCell>
                <mxCell id="5" value="Start" style="strokeWidth=2;html=1;shape=mxgraph.flowchart.terminator;whiteSpace=wrap;" vertex="1" parent="1">
                    <mxGeometry x="200" y="30" width="100" height="60" as="geometry"/>
                </mxCell>
                <mxCell id="6" value="" style="edgeStyle=none;html=1;startArrow=none;" edge="1" parent="1" source="19" target="10">
                    <mxGeometry relative="1" as="geometry"/>
                </mxCell>
                <mxCell id="7" value="Display Table Headings" style="shape=parallelogram;perimeter=parallelogramPerimeter;whiteSpace=wrap;html=1;fixedSize=1;" vertex="1" parent="1">
                    <mxGeometry x="160" y="130" width="180" height="70" as="geometry"/>
                </mxCell>
                <mxCell id="8" value="" style="edgeStyle=none;html=1;" edge="1" parent="1" source="10" target="17">
                    <mxGeometry relative="1" as="geometry"/>
                </mxCell>
                <mxCell id="9" style="edgeStyle=none;html=1;entryX=0.5;entryY=0;entryDx=0;entryDy=0;" edge="1" parent="1" source="10" target="14">
                    <mxGeometry relative="1" as="geometry">
                        <Array as="points">
                            <mxPoint x="505" y="365"/>
                        </Array>
                        <mxPoint x="505" y="410" as="targetPoint"/>
                    </mxGeometry>
                </mxCell>
                <mxCell id="10" value="KPH in range(60,140,10)" style="strokeWidth=2;html=1;shape=mxgraph.flowchart.decision;whiteSpace=wrap;" vertex="1" parent="1">
                    <mxGeometry x="165" y="280" width="170" height="170" as="geometry"/>
                </mxCell>
                <mxCell id="13" value="" style="edgeStyle=none;html=1;" edge="1" parent="1" source="14" target="16">
                    <mxGeometry relative="1" as="geometry"/>
                </mxCell>
                <mxCell id="14" value="MPH&amp;nbsp; = KPH*0.6214" style="rounded=0;whiteSpace=wrap;html=1;" vertex="1" parent="1">
                    <mxGeometry x="420" y="410" width="170" height="50" as="geometry"/>
                </mxCell>
                <mxCell id="15" style="edgeStyle=none;html=1;entryX=1;entryY=0.5;entryDx=0;entryDy=0;" edge="1" parent="1" source="16" target="19">
                    <mxGeometry relative="1" as="geometry">
                        <mxPoint x="511.2500000000001" y="270" as="targetPoint"/>
                        <Array as="points">
                            <mxPoint x="505" y="640"/>
                            <mxPoint x="610" y="640"/>
                            <mxPoint x="610" y="240"/>
                        </Array>
                    </mxGeometry>
                </mxCell>
                <mxCell id="16" value="Display the KPH&amp;nbsp;&lt;br&gt;variable and the&amp;nbsp;&lt;br&gt;MPH variable." style="shape=parallelogram;perimeter=parallelogramPerimeter;whiteSpace=wrap;html=1;fixedSize=1;" vertex="1" parent="1">
                    <mxGeometry x="420" y="520" width="170" height="80" as="geometry"/>
                </mxCell>
                <mxCell id="17" value="End" style="strokeWidth=2;html=1;shape=mxgraph.flowchart.terminator;whiteSpace=wrap;" vertex="1" parent="1">
                    <mxGeometry x="200" y="550" width="100" height="60" as="geometry"/>
                </mxCell>
                <mxCell id="18" value="" style="edgeStyle=none;html=1;endArrow=none;" edge="1" parent="1" source="7" target="19">
                    <mxGeometry relative="1" as="geometry">
                        <mxPoint x="250" y="200" as="sourcePoint"/>
                        <mxPoint x="250" y="260" as="targetPoint"/>
                    </mxGeometry>
                </mxCell>
                <mxCell id="19" value="" style="ellipse;whiteSpace=wrap;html=1;aspect=fixed;" vertex="1" parent="1">
                    <mxGeometry x="240" y="230" width="20" height="20" as="geometry"/>
                </mxCell>
                <mxCell id="20" value="True" style="text;html=1;strokeColor=none;fillColor=none;align=center;verticalAlign=middle;whiteSpace=wrap;rounded=0;fontColor=#33FF33;" vertex="1" parent="1">
                    <mxGeometry x="340" y="343" width="60" height="30" as="geometry"/>
                </mxCell>
                <mxCell id="21" value="False" style="text;html=1;strokeColor=none;fillColor=none;align=center;verticalAlign=middle;whiteSpace=wrap;rounded=0;fontColor=#FF3333;" vertex="1" parent="1">
                    <mxGeometry x="200" y="472" width="60" height="30" as="geometry"/>
                </mxCell>
            </root>
        </mxGraphModel>
    </diagram>
</mxfile>